<svg width="126" height="232" viewBox="0 0 126 232" fill="none" xmlns="http://www.w3.org/2000/svg">
<g clip-path="url(#clip0_124_15560)">
<path d="M45 199V154.354C45 153.204 44.4915 152.101 43.5853 151.286C42.6792 150.47 41.449 150.008 40.1632 150H31.8422C30.5555 150.006 29.3239 150.468 28.4166 151.284C27.5093 152.1 27 153.204 27 154.354V199" stroke="#8C8C8C" stroke-width="3.17963" stroke-miterlimit="10"/>
<rect width="44.5148" height="60.6745" rx="5.29938" transform="matrix(-1 0 0 1 58.5146 165.424)" fill="#41D3FF"/>
<path d="M36.123 180.088V216.436" stroke="#8C8C8C" stroke-width="3.17963" stroke-miterlimit="10" stroke-linecap="round"/>
<path d="M44.7363 180.088V216.436" stroke="#8C8C8C" stroke-width="3.17963" stroke-miterlimit="10" stroke-linecap="round"/>
<path d="M27.5093 180.088V216.436" stroke="#8C8C8C" stroke-width="3.17963" stroke-miterlimit="10" stroke-linecap="round"/>
<path d="M24.8005 228.711C24.7995 229.235 24.9539 229.748 25.2444 230.184C25.5349 230.621 25.9484 230.961 26.4325 231.163C26.9165 231.364 27.4495 231.417 27.9638 231.316C28.4782 231.214 28.9508 230.962 29.3219 230.592C29.693 230.222 29.9459 229.749 30.0486 229.235C30.1513 228.721 30.0991 228.188 29.8987 227.704C29.6984 227.219 29.3587 226.805 28.9229 226.514C28.487 226.222 27.9745 226.067 27.4502 226.067C26.7484 226.067 26.0753 226.345 25.5785 226.841C25.0818 227.337 24.802 228.009 24.8005 228.711Z" fill="#8C8C8C"/>
<path d="M39.8745 228.711C39.8734 229.235 40.0281 229.748 40.3188 230.185C40.6095 230.622 41.0233 230.962 41.5077 231.163C41.9921 231.365 42.5253 231.417 43.0398 231.315C43.5543 231.213 44.0269 230.961 44.3978 230.59C44.7687 230.219 45.0212 229.746 45.1232 229.232C45.2253 228.717 45.1724 228.184 44.9712 227.7C44.7699 227.215 44.4295 226.802 43.9929 226.511C43.5563 226.22 43.0433 226.066 42.5188 226.067C41.8179 226.068 41.1462 226.347 40.6506 226.843C40.155 227.338 39.876 228.01 39.8745 228.711Z" fill="#8C8C8C"/>
<path d="M56.3735 38.119H53.3535V97.3038H56.3735V38.119Z" fill="#404040"/>
<path d="M15.3249 45.7971C8.81781 45.9861 0 51.1597 0 51.1597C4.10535 23.1184 22.6795 -0.266609 56.9211 0.00222139C90.1645 0.263215 110.885 23.2167 112.748 51.1597C112.748 51.1597 102.536 45.6675 95.2334 45.7971C88.3288 45.9197 78.8138 51.1597 78.8138 51.1597C78.8138 51.1597 65.8429 46.0219 56.9211 45.7971C46.9714 45.5464 32.2918 51.1597 32.2918 51.1597C32.2918 51.1597 22.4255 45.5909 15.3249 45.7971Z" fill="#064A75"/>
<path d="M15.3249 45.7971C8.81781 45.9861 0 51.1597 0 51.1597C4.10535 23.1184 22.6795 -0.266609 56.9211 0.00222139C90.1645 0.263215 110.885 23.2167 112.748 51.1597C112.748 51.1597 102.536 45.6675 95.2334 45.7971C88.3288 45.9197 78.8138 51.1597 78.8138 51.1597C78.8138 51.1597 65.8429 46.0219 56.9211 45.7971C46.9714 45.5464 32.2918 51.1597 32.2918 51.1597C32.2918 51.1597 22.4255 45.5909 15.3249 45.7971Z" fill="#064A75"/>
<path d="M50.7435 15.9884H64.8292V27.5476H50.7435V15.9884Z" fill="white"/>
<path d="M67.0194 11.0344H48.4568C47.9647 11.0351 47.493 11.231 47.145 11.5792C46.797 11.9275 46.6012 12.3996 46.6006 12.8922V19.7035C46.6006 30.0907 55.397 33.5349 57.1617 34.12C57.5355 34.247 57.9407 34.247 58.3146 34.12C60.0784 33.5349 68.8756 30.0916 68.8756 19.7035V12.8922C68.875 12.3996 68.6792 11.9275 68.3313 11.5792C67.9833 11.231 67.5115 11.0351 67.0194 11.0344ZM63.4836 19.1375L56.6768 25.6396C56.504 25.8043 56.2746 25.8963 56.0359 25.8963C55.7973 25.8963 55.5679 25.8043 55.3951 25.6396L51.9926 22.3885C51.9043 22.3043 51.8334 22.2036 51.784 22.0919C51.7346 21.9803 51.7077 21.8601 51.7048 21.738C51.7019 21.616 51.723 21.4946 51.767 21.3807C51.811 21.2669 51.877 21.1628 51.9612 21.0745C52.0454 20.9862 52.1462 20.9153 52.2577 20.866C52.3693 20.8167 52.4895 20.7898 52.6114 20.787C52.7334 20.7842 52.8547 20.8055 52.9684 20.8496C53.0821 20.8937 53.186 20.9599 53.2742 21.0442L56.0359 23.683L62.202 17.7932C62.2902 17.7088 62.3941 17.6427 62.5078 17.5986C62.6215 17.5544 62.7428 17.5332 62.8648 17.536C62.9867 17.5388 63.1069 17.5656 63.2185 17.615C63.3301 17.6643 63.4308 17.7351 63.515 17.8235C63.5992 17.9118 63.6652 18.0158 63.7092 18.1297C63.7532 18.2435 63.7744 18.365 63.7714 18.487C63.7685 18.609 63.7416 18.7293 63.6922 18.8409C63.6428 18.9525 63.5719 19.0533 63.4836 19.1375Z" fill="#EC8A0B"/>
<path d="M93.6446 84.457C93.6459 83.6224 93.8312 82.7976 94.1882 82.0371C94.5453 81.2767 95.0659 80.598 95.7158 80.0459C95.5821 79.5612 95.5145 79.0617 95.5148 78.5601C95.5143 77.734 95.6941 76.917 96.0427 76.1621C96.3912 75.4073 96.9006 74.7314 97.5378 74.1785C97.0311 73.1964 96.8189 72.0975 96.9253 71.0056C97.0316 69.9136 97.4521 68.8719 98.1396 67.9977C98.827 67.1234 99.7541 66.4514 100.817 66.0571C101.879 65.6628 103.035 65.5619 104.153 65.7658C105.272 65.9698 106.309 66.4704 107.149 67.2114C107.988 67.9523 108.596 68.9043 108.905 69.96C109.213 71.0158 109.209 72.1335 108.894 73.1873C108.579 74.2412 107.964 75.1894 107.12 75.9253C107.547 76.7425 107.769 77.6451 107.767 78.5601C107.767 79.3941 107.583 80.2185 107.227 80.9789C106.872 81.7394 106.353 82.4184 105.704 82.9712C105.798 83.3101 105.858 83.6568 105.884 84.0066C106.89 84.4044 107.768 85.0535 108.427 85.8869C109.086 86.7203 109.503 87.708 109.634 88.7481C109.765 89.7882 109.605 90.8431 109.172 91.8042C108.739 92.7653 108.048 93.5978 107.17 94.216C106.292 94.8341 105.258 95.2155 104.176 95.3209C103.094 95.4262 102.002 95.2517 101.013 94.8154C100.024 94.3791 99.1743 93.6966 98.5503 92.8384C97.9264 91.9802 97.5512 90.9773 97.4636 89.933C96.3326 89.4913 95.3646 88.7339 94.6841 87.758C94.0035 86.7822 93.6415 85.6326 93.6446 84.457Z" fill="black"/>
<path d="M103.818 92.9077L96.7256 90.4149V82.4306C96.7256 82.4306 103.111 82.2088 102.777 70.6317C102.444 59.0545 90.2248 63.2063 90.2248 63.2063C90.2248 63.2063 85.2847 72.9649 88.1705 79.3833L84.8934 90.406H80.6381L79.7488 101.655L109.678 104.893L107.344 97.1882" fill="#5C473C"/>
<path d="M76.5 221L70 220.5L69.5601 224.317L76.296 224.75L76.5 221Z" fill="#5C473C"/>
<path d="M100.629 226.019L100.5 223.5L100 221.5L107 221L107.5 225.5L100.629 226.019Z" fill="#5C473C"/>
<path d="M122.554 133.895L117.396 135.287L120.209 142.711C120.209 142.711 123.943 144.12 125.367 142.711C126.792 141.301 125.367 137.607 125.367 137.607L122.554 133.895Z" fill="#5C473C"/>
<path d="M68.5601 223.095L77.1032 148.67H112.343V164.221L107.538 221.429L99.5288 223.095L94.7233 160.333L77.1032 223.095H68.5601Z" fill="#0B99F0"/>
<path d="M99.9946 225.206L111.139 225.206H111.14C113.023 225.206 114.83 225.889 116.162 227.105C117.494 228.32 118.242 229.969 118.242 231.688V231.899L99.995 231.9L99.9946 225.206Z" fill="#8C8C8C"/>
<path d="M66.7583 223.313L76.9066 224.461L76.907 224.461C78.6222 224.655 80.1887 225.52 81.2619 226.865C82.3351 228.21 82.8272 229.925 82.6299 231.633L82.6057 231.843L65.99 229.963L66.7583 223.313Z" fill="#8C8C8C"/>
<path d="M55.0886 99.4598C56.6354 99.1375 58.4565 97.2381 58.4565 97.2381L63.5084 108.346L65.1924 103.348L69.683 94.461C69.683 94.461 72.3475 90.6201 74.735 88.9069C77.7674 86.731 85.1226 86.7801 85.1226 86.7801C85.1226 86.7801 88.5134 89.216 92.1361 88.3514C94.7021 87.7389 96.459 85.7605 96.459 85.7605C96.459 85.7605 103.455 86.3525 106.169 88.9069C108.022 90.6502 109.537 94.461 109.537 94.461L114.589 111.123L123.57 133.895L117.396 136.117L109.537 121.676C109.537 121.676 113.466 139.282 113.466 147.225C113.466 155.169 77.3775 151.747 76.4189 147.225C75.7471 144.056 76.6616 137.788 76.4189 132C76.0533 123.279 74.735 115.011 74.735 115.011C74.735 115.011 70.6444 128.965 65.1924 126.675C62.7626 125.655 60.7018 121.676 60.7018 121.676C60.7018 121.676 56.6508 115.165 55.0886 110.568C53.6636 106.375 52.8433 99.4598 52.8433 99.4598C52.8433 99.4598 54.2305 99.6385 55.0886 99.4598Z" fill="#B3EDFF"/>
<path d="M71.8732 77.5091C70.7968 76.7491 69.9692 75.6767 69.4978 74.431C69.0263 73.1854 68.9328 71.8239 69.2294 70.5234C69.5259 69.2229 70.1988 68.0432 71.1608 67.1376C72.1228 66.2319 73.3294 65.642 74.6241 65.4445C74.6968 64.1198 75.1552 62.8474 75.9406 61.7898C76.726 60.7323 77.8028 59.9377 79.0333 59.5076C79.4847 58.6533 80.1133 57.9097 80.8755 57.3288C81.6377 56.7479 82.5149 56.3436 83.4461 56.1442C84.3772 55.9447 85.3398 55.9549 86.2667 56.1741C87.1936 56.3932 88.0624 56.816 88.8126 57.4129C89.5177 56.1253 90.6218 55.1128 91.9518 54.5342C93.2819 53.9555 94.7626 53.8434 96.1618 54.2154C97.561 54.5875 98.7996 55.4226 99.6834 56.5899C100.567 57.7572 101.046 59.1906 101.045 60.6654C101.045 60.8649 101.037 61.0644 101.02 61.2639C101.439 61.3794 101.83 61.5854 102.165 61.8681C102.499 62.1507 102.771 62.5034 102.96 62.9022C103.15 63.3011 103.253 63.7368 103.264 64.18C103.274 64.6232 103.191 65.0634 103.02 65.471C102.849 65.8786 102.594 66.244 102.273 66.5425C101.952 66.841 101.571 67.0657 101.158 67.2013C100.744 67.3369 100.306 67.3803 99.8747 67.3286C99.4431 67.2769 99.0273 67.1313 98.6556 66.9016C97.9397 67.4608 97.0784 67.793 96.1788 67.857C95.2792 67.921 94.3811 67.7139 93.5959 67.2615C93.2408 68.0734 92.6671 68.766 91.9417 69.2588C91.2162 69.7516 90.3685 70.0244 89.4971 70.0457C89.6923 70.6889 89.7912 71.3585 89.7905 72.0319C89.7941 73.6 89.2516 75.1184 88.2598 76.3165C89.1971 76.9145 89.9702 77.7455 90.5064 78.7316C91.0426 79.7177 91.3244 80.8266 91.3254 81.9542C91.3251 82.3573 91.2881 82.7594 91.2149 83.1555C92.4008 83.9352 93.3072 85.0856 93.7985 86.4347C94.2898 87.7837 94.3395 89.2587 93.9403 90.639C93.5411 92.0192 92.7143 93.2305 91.5838 94.0915C90.4533 94.9525 89.0798 95.4169 87.6688 95.4153C87.3843 95.415 87.1002 95.3947 86.8185 95.3546C85.7529 96.5192 84.3135 97.2558 82.7612 97.4309C81.2089 97.6059 79.6465 97.2078 78.3573 96.3086C77.0502 96.6548 75.6701 96.5792 74.407 96.0922C73.1438 95.6053 72.0597 94.7309 71.3039 93.5896C70.5481 92.4482 70.1578 91.096 70.1866 89.719C70.2154 88.342 70.6621 87.008 71.465 85.9006C70.5728 84.6672 70.1249 83.1576 70.1969 81.6266C70.269 80.0956 70.8565 78.6367 71.8604 77.4961L71.8732 77.5091Z" fill="black"/>
<path d="M57.0002 106.5V96.5C57.0002 95.6716 56.3287 95 55.5002 95C54.6718 95 54.0002 95.6716 54.0002 96.5V106.5C54.0002 107.328 54.6718 108 55.5002 108C56.3287 108 57.0002 107.328 57.0002 106.5Z" fill="#404040"/>
<path d="M51.7137 94.9274L53.7422 101.403L58.1693 100.474L58.9438 90.8046L56.2711 89.957L53.9821 91.5641L51.7137 94.9274Z" fill="#5C473C"/>
</g>
<defs>
<clipPath id="clip0_124_15560">
<rect width="126" height="232" fill="white"/>
</clipPath>
</defs>
</svg>
